<svg width="100%" height="1300">
<line id="linie_pionowe" x1="0" y1="0" x2="0" y2="1200" stroke="gray" stroke-width="1"/>
<line id="linie_poziome" x1="0" y1="0" x2="1200" y2="0" stroke="gray" stroke-width="1"/>
<use xlink:href="#linie_pionowe" x="25" y="0"/>
<use xlink:href="#linie_pionowe" x="50" y="0"/>
<use xlink:href="#linie_pionowe" x="75" y="0"/>
<use xlink:href="#linie_pionowe" x="100" y="0"/>
<use xlink:href="#linie_pionowe" x="125" y="0"/>
<use xlink:href="#linie_pionowe" x="150" y="0"/>
<use xlink:href="#linie_pionowe" x="175" y="0"/>
<use xlink:href="#linie_pionowe" x="200" y="0"/>
<use xlink:href="#linie_pionowe" x="225" y="0"/>
<use xlink:href="#linie_pionowe" x="250" y="0"/>
<use xlink:href="#linie_pionowe" x="275" y="0"/>
<use xlink:href="#linie_pionowe" x="300" y="0"/>
<use xlink:href="#linie_pionowe" x="325" y="0"/>
<use xlink:href="#linie_pionowe" x="350" y="0"/>
<use xlink:href="#linie_pionowe" x="375" y="0"/>
<use xlink:href="#linie_pionowe" x="400" y="0"/>
<use xlink:href="#linie_pionowe" x="425" y="0"/>
<use xlink:href="#linie_pionowe" x="450" y="0"/>
<use xlink:href="#linie_pionowe" x="475" y="0"/>
<use xlink:href="#linie_pionowe" x="500" y="0"/>
<use xlink:href="#linie_pionowe" x="525" y="0"/>
<use xlink:href="#linie_pionowe" x="550" y="0"/>
<use xlink:href="#linie_pionowe" x="575" y="0"/>
<use xlink:href="#linie_pionowe" x="600" y="0"/>
<use xlink:href="#linie_pionowe" x="625" y="0"/>
<use xlink:href="#linie_pionowe" x="650" y="0"/>
<use xlink:href="#linie_pionowe" x="675" y="0"/>
<use xlink:href="#linie_pionowe" x="700" y="0"/>
<use xlink:href="#linie_pionowe" x="725" y="0"/>
<use xlink:href="#linie_pionowe" x="750" y="0"/>
<use xlink:href="#linie_pionowe" x="775" y="0"/>
<use xlink:href="#linie_pionowe" x="800" y="0"/>
<use xlink:href="#linie_pionowe" x="825" y="0"/>
<use xlink:href="#linie_pionowe" x="850" y="0"/>
<use xlink:href="#linie_pionowe" x="875" y="0"/>
<use xlink:href="#linie_pionowe" x="900" y="0"/>
<use xlink:href="#linie_pionowe" x="925" y="0"/>
<use xlink:href="#linie_pionowe" x="950" y="0"/>
<use xlink:href="#linie_pionowe" x="975" y="0"/>
<use xlink:href="#linie_pionowe" x="1000" y="0"/>
<use xlink:href="#linie_poziome" x="0" y="25"/>
<use xlink:href="#linie_poziome" x="0" y="50"/>
<use xlink:href="#linie_poziome" x="0" y="75"/>
<use xlink:href="#linie_poziome" x="0" y="100"/>
<use xlink:href="#linie_poziome" x="0" y="125"/>
<use xlink:href="#linie_poziome" x="0" y="150"/>
<use xlink:href="#linie_poziome" x="0" y="175"/>
<use xlink:href="#linie_poziome" x="0" y="200"/>
<use xlink:href="#linie_poziome" x="0" y="225"/>
<use xlink:href="#linie_poziome" x="0" y="250"/>
<use xlink:href="#linie_poziome" x="0" y="275"/>
<use xlink:href="#linie_poziome" x="0" y="300"/>
<use xlink:href="#linie_poziome" x="0" y="325"/>
<use xlink:href="#linie_poziome" x="0" y="350"/>
<use xlink:href="#linie_poziome" x="0" y="375"/>
<use xlink:href="#linie_poziome" x="0" y="400"/>
<use xlink:href="#linie_poziome" x="0" y="425"/>
<use xlink:href="#linie_poziome" x="0" y="450"/>
<use xlink:href="#linie_poziome" x="0" y="475"/>
<use xlink:href="#linie_poziome" x="0" y="500"/>
<use xlink:href="#linie_poziome" x="0" y="525"/>
<use xlink:href="#linie_poziome" x="0" y="550"/>
<use xlink:href="#linie_poziome" x="0" y="575"/>
<use xlink:href="#linie_poziome" x="0" y="600"/>
<use xlink:href="#linie_poziome" x="0" y="625"/>
<use xlink:href="#linie_poziome" x="0" y="650"/>
<use xlink:href="#linie_poziome" x="0" y="675"/>
<use xlink:href="#linie_poziome" x="0" y="700"/>
<use xlink:href="#linie_poziome" x="0" y="725"/>
<use xlink:href="#linie_poziome" x="0" y="750"/>
<use xlink:href="#linie_poziome" x="0" y="775"/>
<use xlink:href="#linie_poziome" x="0" y="800"/>
<use xlink:href="#linie_poziome" x="0" y="825"/>
<use xlink:href="#linie_poziome" x="0" y="850"/>
<use xlink:href="#linie_poziome" x="0" y="875"/>
<use xlink:href="#linie_poziome" x="0" y="900"/>
<use xlink:href="#linie_poziome" x="0" y="925"/>
<use xlink:href="#linie_poziome" x="0" y="950"/>
<use xlink:href="#linie_poziome" x="0" y="975"/>
<use xlink:href="#linie_poziome" x="0" y="1000"/>
</svg>